<?xml version="1.0" encoding="UTF-8" standalone="no"?><!DOCTYPE svg PUBLIC "-//W3C//DTD SVG 1.1//EN" "http://www.w3.org/Graphics/SVG/1.1/DTD/svg11.dtd"><svg width="100%" height="100%" viewBox="0 0 100 38" version="1.1" xmlns="http://www.w3.org/2000/svg" xmlns:xlink="http://www.w3.org/1999/xlink" xml:space="preserve" xmlns:serif="http://www.serif.com/" style="fill-rule:evenodd;clip-rule:evenodd;stroke-linejoin:round;stroke-miterlimit:2;"><path d="M0,13.175c0,-0.066 0,-0.133 0.022,-0.199c0.044,-0.222 0.155,-0.443 0.333,-0.621c1.019,-0.997 2.571,-0.953 3.679,-0.709c2.814,0.576 5.23,2.283 7.535,3.945c1.995,1.419 4.034,2.881 6.361,3.635c0.465,0.155 0.975,0.288 1.441,0.399c0.687,0.177 1.396,0.355 2.083,0.643c0.044,0.022 0.111,0.044 0.155,0.066l-1.463,-0.975c-0.842,-0.554 -1.684,-1.13 -2.393,-1.884c-0.687,-0.731 -1.219,-1.574 -1.729,-2.394l-6.981,-11.258c-0,-0.023 -0.023,-0.023 -0.023,-0.045c-0.221,-0.399 -0.221,-0.864 0.023,-1.241c0.243,-0.377 0.687,-0.598 1.13,-0.554c1.197,0.111 2.416,0.687 3.347,1.618c0.11,0.111 0.221,0.222 0.31,0.332c-0.2,-0.753 -0.355,-1.507 -0.443,-2.26c-0.067,-0.488 0.11,-0.975 0.487,-1.308c0.377,-0.332 0.887,-0.443 1.374,-0.31c0.665,0.199 1.352,0.576 1.884,1.086c1.02,0.953 1.662,2.26 2.239,3.413l4.166,8.422c0.466,0.266 0.842,0.598 1.153,0.975l-1.795,-5.009c-0.422,-1.152 -0.843,-2.349 -1.042,-3.59c-0.044,-0.31 0.155,-0.621 0.465,-0.665c0.577,-0.111 1.264,0.066 1.818,0.443c0.642,0.443 1.086,1.108 1.485,1.773c0.687,1.131 1.263,2.35 1.817,3.524c0.288,0.599 0.576,1.219 0.886,1.84c0.754,0.443 1.264,1.352 1.596,2.039l0.133,0.266c0.288,0.576 0.554,1.174 0.887,1.751c1.573,1.795 3.612,3.235 5.851,4.078c0.864,0.332 2.017,-0 2.593,-0.754c0.199,-0.266 0.377,-0.554 0.576,-0.82c0.266,-0.421 0.554,-0.864 0.931,-1.241c0.665,-0.687 1.574,-1.108 2.438,-1.529c0.931,-0.444 1.795,-0.843 2.416,-1.552c0.088,-0.088 0.11,-0.221 0.044,-0.332c-0.044,-0.111 -0.155,-0.178 -0.288,-0.178c-0.355,0 -0.754,0.111 -1.108,0.311c-0.444,0.266 -0.82,0.642 -1.197,1.019c-0.155,0.155 -0.31,0.311 -0.466,0.444c-0.132,0.132 -0.265,0.221 -0.398,0.288c-1.02,0.532 -1.796,-0.288 -2.505,-0.998c-0.089,-0.088 -0.155,-0.155 -0.244,-0.244c-0.798,-0.775 -1.817,-1.329 -2.792,-1.839c-0.532,-0.288 -1.086,-0.576 -1.618,-0.909c-2.793,-1.795 -4.677,-4.942 -4.92,-8.244c-0.045,-0.643 -0,-1.286 0.642,-1.685c0.421,-0.244 0.953,-0.288 1.463,-0.088c0.754,0.265 1.263,0.886 1.751,1.462c0.067,0.089 0.133,0.178 0.222,0.244c3.191,3.768 8.089,5.43 12.832,7.048c0.532,0.177 1.064,0.355 1.574,0.554c1.972,0.687 4.255,1.551 6.095,2.97c0.953,0.731 1.773,1.618 2.57,2.46l4.921,5.186c0.288,0.31 -0.045,0.643 -0.288,0.865l-0.067,0.066c-0.31,0.31 -0.731,0.51 -1.175,0.554c-2.149,0.288 -4.321,-0.089 -6.427,-0.443c-1.152,-0.2 -2.349,-0.399 -3.524,-0.488c-1.263,-0.088 -2.549,-0.066 -3.79,-0.044c-1.573,0.022 -3.213,0.066 -4.809,-0.155c-1.95,-0.266 -3.834,-0.931 -5.585,-1.574c-1.707,-0.62 -3.325,-1.285 -4.544,-2.526c-0.532,-0.532 -0.953,-1.153 -1.329,-1.796c-0.2,-0.243 -0.399,-0.465 -0.599,-0.731c-0.776,-1.019 -1.418,-2.15 -1.995,-3.28c-0.11,-0.044 -0.221,-0.044 -0.31,0.044c-0.066,0.067 -0.133,0.178 -0.088,0.31c0.332,1.042 0.886,1.995 1.418,2.926l3.103,5.43c1.307,2.305 2.549,4.277 4.588,5.253c1.396,0.665 2.992,0.753 4.543,0.842l0.288,0.022c4.034,0.222 8.666,0.798 12.389,3.347c0.222,0.155 0.421,0.31 0.643,0.465c0.598,0.421 1.197,0.864 1.884,1.153c0.798,0.332 1.95,0.487 2.77,-0.133c0.111,-0.089 0.222,-0.178 0.333,-0.289l1.108,-4.543c0.244,-0.953 0.687,-2.238 1.839,-2.327c0.2,-0.022 0.399,0.066 0.51,0.177c0.288,0.288 0.111,0.643 0,0.842l-2.526,4.81c-0.2,0.377 -0.421,0.798 -0.732,1.152l-0.288,1.153c-0.111,0.487 -0.199,0.975 0.089,1.285c0.155,0.178 0.399,0.244 0.598,0.288c0.998,0.244 2.061,0.067 2.926,-0.465c2.172,-1.33 4.41,-1.729 6.782,-2.128c1.174,-0.199 2.393,-0.399 3.612,-0.731c0.887,-0.244 1.795,-0.488 2.549,-0.997c0.643,-0.444 1.33,-1.264 1.263,-2.217c-0.044,-1.019 -0.931,-1.839 -1.773,-2.194c-0.953,-0.399 -2.039,-0.421 -3.014,-0.421l-4.499,-0.067c-0.466,0 -0.997,-0.022 -1.463,-0.221c-0.443,-0.2 -0.864,-0.665 -0.82,-1.241l0,-0.067l8.644,-2.46c0.798,-0.222 1.595,-0.465 2.327,-0.864c0.377,-0.222 0.753,-0.488 1.108,-0.754c0.222,-0.177 0.465,-0.354 0.709,-0.51c1.197,-0.797 2.571,-1.285 3.901,-1.75c1.529,-0.555 3.125,-1.109 4.388,-2.128l0.133,0.177c-1.285,1.064 -2.903,1.618 -4.455,2.172c-1.307,0.466 -2.681,0.953 -3.834,1.729c-0.244,0.155 -0.465,0.332 -0.687,0.488c-0.354,0.265 -0.731,0.554 -1.13,0.775c-0.754,0.421 -1.574,0.665 -2.372,0.887l-8.488,2.416c-0,0.421 0.355,0.775 0.687,0.93c0.421,0.2 0.931,0.2 1.374,0.2l4.499,0.066c0.998,0.022 2.106,0.045 3.103,0.444c1.108,0.465 1.862,1.396 1.906,2.393c0.044,0.887 -0.488,1.795 -1.374,2.416c-0.798,0.554 -1.751,0.798 -2.615,1.042c-1.241,0.332 -2.46,0.554 -3.635,0.753c-2.349,0.399 -4.588,0.776 -6.715,2.084c-0.931,0.576 -2.062,0.753 -3.103,0.487c-0.222,-0.044 -0.51,-0.155 -0.71,-0.354c-0.354,-0.377 -0.265,-0.976 -0.133,-1.485l0.2,-0.82c-0.022,0.022 -0.067,0.044 -0.089,0.066c-0.886,0.665 -2.127,0.51 -2.992,0.155c-0.709,-0.288 -1.33,-0.753 -1.928,-1.174c-0.199,-0.156 -0.421,-0.311 -0.643,-0.444c-3.679,-2.526 -8.266,-3.08 -12.278,-3.302l-0.288,-0.022c-1.574,-0.089 -3.192,-0.178 -4.632,-0.865c-2.084,-0.997 -3.369,-3.014 -4.677,-5.341l-3.102,-5.43c-0.532,-0.931 -1.086,-1.906 -1.441,-2.97c-0.067,-0.199 -0,-0.421 0.155,-0.554c0.089,-0.088 0.2,-0.111 0.333,-0.111c-0.266,-0.554 -0.532,-1.086 -0.798,-1.64c-0.554,-1.174 -1.153,-2.371 -1.818,-3.501c-0.377,-0.643 -0.82,-1.286 -1.418,-1.707c-0.51,-0.355 -1.13,-0.51 -1.64,-0.399c-0.178,0.044 -0.311,0.222 -0.288,0.421c0.199,1.219 0.62,2.394 1.019,3.546l2.083,5.829c0.355,0.643 0.621,1.352 0.887,2.106c0.111,0.288 0.199,0.576 0.332,0.864c0.156,0.421 0.333,0.842 0.555,1.285c0.332,0.621 0.687,1.219 1.13,1.774c1.042,1.351 2.393,2.437 3.701,3.479c0.288,0.244 0.598,0.466 0.887,0.709c0.509,0.421 0.953,1.064 0.554,1.574l-0.067,0.066l-0.088,-0.044c-3.125,-1.773 -5.12,-4.831 -6.317,-7.469c-0.709,-1.33 -1.219,-2.77 -1.729,-4.167l-0.044,-0.11c-0.377,-0.665 -0.864,-1.241 -1.574,-1.64l-0.044,-0.045l-4.233,-8.555c-0.598,-1.197 -1.197,-2.415 -2.172,-3.346c-0.51,-0.488 -1.153,-0.865 -1.795,-1.042c-0.399,-0.111 -0.842,-0.022 -1.175,0.266c-0.31,0.266 -0.465,0.687 -0.421,1.108c0.133,0.909 0.332,1.817 0.576,2.704c0.953,1.219 1.507,2.66 1.951,3.967c0.221,0.687 0.443,1.396 0.664,2.084c0.333,1.108 0.688,2.216 1.086,3.302c0.133,0.221 0.289,0.443 0.422,0.665c0.288,0.421 0.62,0.82 0.93,1.219c0.577,0.709 1.153,1.44 1.552,2.26c0.066,0.155 0.022,0.311 -0.111,0.399c-0.133,0.089 -0.31,0.067 -0.421,-0.044c-1.175,-1.241 -1.95,-2.793 -2.571,-4.41c-0.665,-1.131 -1.152,-2.35 -1.618,-3.524c-0.753,-1.884 -1.529,-3.812 -2.083,-5.807c-0.178,-0.244 -0.399,-0.466 -0.599,-0.687c-0.908,-0.887 -2.061,-1.441 -3.213,-1.552c-0.377,-0.044 -0.732,0.133 -0.931,0.444c-0.2,0.31 -0.2,0.687 -0.022,1.019l0.022,0.044l6.981,11.259c0.51,0.82 1.042,1.663 1.707,2.372c0.687,0.731 1.551,1.307 2.371,1.839l7.624,5.142c0.133,0.089 0.178,0.244 0.111,0.399c-0.066,0.133 -0.221,0.2 -0.377,0.155c-0.864,-0.266 -1.64,-0.997 -2.305,-1.64l-0.044,-0.044c-0.886,-0.842 -2.283,-2.061 -3.945,-2.726c-0.665,-0.266 -1.374,-0.443 -2.039,-0.621c-0.488,-0.133 -0.975,-0.244 -1.463,-0.399c-2.349,-0.775 -4.41,-2.238 -6.405,-3.657c-2.305,-1.64 -4.676,-3.324 -7.469,-3.9c-1.064,-0.222 -2.549,-0.288 -3.479,0.642c-0.156,0.156 -0.244,0.311 -0.266,0.488c-0.089,0.488 0.221,0.731 0.665,0.997c2.947,1.818 5.784,3.901 8.399,6.162c0.266,0.221 0.532,0.465 0.776,0.687c1.729,1.529 3.524,3.08 5.674,3.945c1.086,0.421 2.26,0.665 3.391,0.908c0.465,0.089 0.953,0.2 1.418,0.311c1.352,0.31 2.682,0.753 3.99,1.174c2.282,0.754 4.565,1.507 6.781,2.261c1.774,0.598 3.547,1.197 5.364,1.795l9.331,3.081c3.213,1.064 6.516,2.15 9.929,2.615c0.931,0.133 1.906,0.2 2.837,0.288c1.13,0.089 2.327,0.2 3.479,0.377c0.222,0.044 0.443,0.067 0.687,0.111c0.798,0.133 1.596,0.288 2.416,0.266c1.441,-0.022 2.815,-0.532 4.167,-1.02c0.177,-0.066 0.354,-0.133 0.554,-0.199c9.619,-3.48 19.947,-3.635 29.92,-3.812l0,0.221c-9.973,0.178 -20.279,0.333 -29.854,3.79c-0.177,0.067 -0.354,0.133 -0.554,0.2c-1.352,0.51 -2.77,1.019 -4.233,1.041c-0.82,0.023 -1.64,-0.133 -2.438,-0.266c-0.222,-0.044 -0.443,-0.088 -0.665,-0.11c-1.152,-0.178 -2.327,-0.288 -3.457,-0.377c-0.931,-0.089 -1.906,-0.155 -2.859,-0.288c-3.413,-0.466 -6.76,-1.552 -9.974,-2.615l-9.33,-3.081c-1.796,-0.599 -3.591,-1.197 -5.364,-1.795c-2.216,-0.732 -4.477,-1.507 -6.76,-2.261c-1.285,-0.421 -2.615,-0.864 -3.967,-1.175c-0.465,-0.11 -0.953,-0.199 -1.418,-0.31c-1.131,-0.244 -2.327,-0.488 -3.413,-0.909c-2.172,-0.864 -3.99,-2.46 -5.741,-3.989c-0.266,-0.222 -0.532,-0.465 -0.775,-0.687c-2.616,-2.261 -5.43,-4.322 -8.378,-6.139c-0.377,-0.2 -0.82,-0.466 -0.82,-0.998Zm17.132,-0.975c-0.199,-0.598 -0.399,-1.219 -0.576,-1.839c-0.2,-0.687 -0.421,-1.397 -0.665,-2.061c-0.377,-1.109 -0.842,-2.328 -1.574,-3.414c0.532,1.773 1.219,3.502 1.906,5.209c0.311,0.709 0.599,1.418 0.909,2.105Zm3.458,5.696l-0,-0.044c-0.377,-0.798 -0.953,-1.529 -1.53,-2.216c-0.244,-0.311 -0.509,-0.621 -0.731,-0.953c0.532,1.218 1.197,2.327 2.105,3.28c0.045,0.066 0.111,0.022 0.133,0.022c-0.022,-0 0.023,-0.045 0.023,-0.089Zm7.247,6.627c-0,-0.022 -0,-0.044 -0.044,-0.067l-2.771,-1.861c0.155,0.133 0.288,0.266 0.443,0.399l0.045,0.044c0.665,0.621 1.396,1.33 2.216,1.574c0.067,0.022 0.089,-0.023 0.111,-0.045c-0.022,0 -0,-0.022 -0,-0.044Zm5.275,1.507c-0,-0.355 -0.355,-0.754 -0.621,-0.975c-0.288,-0.244 -0.576,-0.488 -0.886,-0.709c-1.264,-1.02 -2.571,-2.062 -3.591,-3.347c1.175,1.973 2.815,3.945 5.053,5.231c0.045,-0.067 0.045,-0.133 0.045,-0.2Zm-2.904,-10.705c-0.133,-0.244 -0.243,-0.51 -0.354,-0.753l-0.133,-0.244c-0.266,-0.532 -0.643,-1.241 -1.175,-1.707c0.488,0.931 1.02,1.862 1.662,2.704Zm31.96,6.849c-0,-0.045 -0.023,-0.089 -0.045,-0.111l-4.92,-5.186c-0.798,-0.843 -1.618,-1.707 -2.549,-2.438c-1.817,-1.397 -4.056,-2.261 -6.028,-2.948c-0.532,-0.177 -1.042,-0.355 -1.574,-0.554c-4.765,-1.618 -9.685,-3.302 -12.921,-7.114c-0.066,-0.089 -0.133,-0.178 -0.221,-0.244c-0.466,-0.554 -0.953,-1.153 -1.64,-1.396c-0.444,-0.156 -0.909,-0.133 -1.264,0.088c-0.576,0.333 -0.576,0.931 -0.532,1.463c0.244,3.236 2.106,6.316 4.832,8.067c0.51,0.333 1.064,0.621 1.596,0.909c0.997,0.532 2.016,1.064 2.836,1.884c0.089,0.066 0.156,0.155 0.244,0.244c0.687,0.687 1.374,1.418 2.239,0.953c0.111,-0.067 0.244,-0.155 0.354,-0.266c0.155,-0.133 0.311,-0.288 0.444,-0.444c0.376,-0.376 0.775,-0.775 1.241,-1.041c0.377,-0.222 0.82,-0.355 1.219,-0.355c0.221,0 0.399,0.133 0.487,0.31c0.089,0.2 0.045,0.399 -0.088,0.577c-0.643,0.731 -1.574,1.174 -2.483,1.595c-0.864,0.399 -1.728,0.82 -2.371,1.485c-0.355,0.355 -0.621,0.798 -0.909,1.219c-0.177,0.288 -0.377,0.577 -0.576,0.843c-0.554,0.709 -1.574,1.063 -2.46,0.908c1.618,0.599 3.347,1.175 5.142,1.419c1.573,0.221 3.213,0.199 4.787,0.155c1.241,-0.022 2.549,-0.045 3.812,0.044c1.175,0.089 2.394,0.31 3.546,0.51c2.083,0.355 4.255,0.731 6.361,0.443c0.399,-0.066 0.776,-0.221 1.064,-0.51l0.066,-0.066c0.2,-0.2 0.311,-0.333 0.311,-0.443Zm-26.419,-2.062c-1.529,-0.709 -2.948,-1.684 -4.167,-2.881c0.2,0.266 0.422,0.532 0.665,0.776c0.931,0.975 2.172,1.574 3.502,2.105Zm27.349,5.275c0,-0.066 -0.022,-0.155 -0.088,-0.199c-0.089,-0.089 -0.2,-0.133 -0.333,-0.111c-0.997,0.067 -1.396,1.197 -1.64,2.15l-0.997,4.056c0.155,-0.222 0.288,-0.466 0.399,-0.71l2.526,-4.809c0.089,-0.155 0.133,-0.266 0.133,-0.377Z" style="fill:inherit;fill-rule:nonzero;"/></svg>
