<?xml version="1.0" encoding="UTF-8" standalone="no"?>
<!DOCTYPE svg PUBLIC "-//W3C//DTD SVG 1.1//EN" "http://www.w3.org/Graphics/SVG/1.1/DTD/svg11.dtd">
<svg width="100%" height="100%" viewBox="0 0 100 100" version="1.1" xmlns="http://www.w3.org/2000/svg" xmlns:xlink="http://www.w3.org/1999/xlink" xml:space="preserve" xmlns:serif="http://www.serif.com/" style="fill-rule:evenodd;clip-rule:evenodd;stroke-linejoin:round;stroke-miterlimit:2;" fill="#CDB2AC">
    <g transform="matrix(0.266459,0,0,0.266459,-3.4709,-1.19117)">
        <g id="svgg">
            <path id="path0" d="M192.121,4.767C107.035,8.838 35.117,69.483 17.336,152.157C-7.902,269.506 80.87,379.641 200.727,379.681C316.524,379.719 404.5,276.106 385.806,161.705C370.496,68.017 286.844,0.236 192.121,4.767M209.576,16.731C296.424,21.012 367.318,88.845 375.631,175.617C384.704,270.332 315.857,355.545 221.293,366.644C115.562,379.053 22.888,295.09 25.05,188.848C27.07,89.577 110.409,11.842 209.576,16.731M195.273,26.101C115.435,28.367 47.581,88.917 36.257,168C21.824,268.796 99.222,358.307 200.807,358.303C281.924,358.3 351.517,299.394 364.597,219.668C380.829,120.728 307.509,30.347 207.634,26.182C202.385,25.963 200.557,25.951 195.273,26.101M205.915,74.424C214.196,84.366 220.545,98.345 222.83,111.667C223.353,114.712 223.676,126.462 223.25,126.891C223.17,126.971 222.025,126.558 220.704,125.975C207.708,120.23 193.007,120.262 180.456,126.06C179.301,126.594 178.277,127.03 178.18,127.03C177.879,127.03 177.749,120.776 177.976,117.212C178.982,101.455 186.895,83.426 198.036,71.506L200.556,68.81L202.479,70.708C203.536,71.752 205.083,73.424 205.915,74.424M161.165,72.587C167.406,76.372 172.985,80.791 178.364,86.209C182.185,90.059 182.098,89.882 181.119,91.825C177.075,99.853 174.552,110.381 174.547,119.254L174.545,122.751L173.434,121.315C168.672,115.162 162.233,109.319 154.182,103.845C150.17,101.117 150.549,101.888 151.042,97.455C151.885,89.881 153.872,81.644 156.672,74.121C157.354,72.288 157.977,70.788 158.055,70.788C158.133,70.788 159.533,71.598 161.165,72.587M244.429,73.352C247.46,81.261 249.908,91.717 250.559,99.539L250.723,101.503L248.21,103.145C240.374,108.264 233.298,114.547 228.442,120.696L227.03,122.484L226.865,118.272C226.517,109.434 224.722,101.865 220.979,93.455L219.469,90.061L220.132,89.212C223.623,84.748 233.2,76.864 240.848,72.159C243.523,70.513 243.314,70.443 244.429,73.352M137.292,98.016C153.379,105.775 164.952,115.018 173.427,126.874C175.102,129.218 175.192,128.815 172.583,130.656C161.07,138.782 153.439,152.149 152.314,166.162L152.121,168.566L145.212,162.136C132.707,150.5 130.424,146.641 129.322,135.286C128.326,125.026 129.324,114.503 132.914,97.394C133.216,95.954 132.934,95.914 137.292,98.016M268.356,97.152C271.753,109.149 273.285,128.835 271.606,138.909C270.02,148.427 267.808,151.466 251.719,166.237L249.282,168.474L248.995,165.631C247.538,151.18 239.996,138.354 228.183,130.237L226.426,129.03L228.033,126.758C236.139,115.295 247.341,106.304 263.379,98.389C268.434,95.894 268.028,95.995 268.356,97.152M93.496,106.8C107.131,109.742 119.215,114.942 125.381,120.522L126.277,121.333L125.931,128.848C125.741,132.982 125.476,137.4 125.342,138.667C125.105,140.915 123.337,153.74 123.242,153.898C123.216,153.941 122.331,153.479 121.275,152.87C116.848,150.316 110.745,147.781 104.817,146.034C100.111,144.646 100.751,145.205 98.354,140.394C94.545,132.748 92.119,124.623 91.034,115.879C90.624,112.575 90.264,106.182 90.488,106.182C90.565,106.182 91.918,106.46 93.496,106.8M310.92,109.152C310.244,121.416 307.208,132.956 302.317,141.844L300.667,144.844L297.604,145.725C290.808,147.682 283.242,150.828 279.211,153.372C278.031,154.117 278.282,154.836 277.247,147.758C276.054,139.601 275.118,127.92 275.158,121.697C275.161,121.223 275.595,120.767 277.156,119.597C284.752,113.911 294.493,109.743 306.182,107.179C307.982,106.784 309.673,106.411 309.939,106.349C311.123,106.077 311.094,105.994 310.92,109.152M175.281,139.636C181.829,147.482 189.26,159.199 191.64,165.431L192.047,166.497L189.258,170.703C181.464,182.457 175.03,197.902 175.03,204.859C175.03,205.747 174.795,205.285 173.925,202.692C170.69,193.051 164.836,183.198 156.774,173.829C153.971,170.572 154.033,171.206 156.03,166.19C159.339,157.882 165.318,147.806 171.761,139.681C173.627,137.328 173.357,137.332 175.281,139.636M230.023,140.209C237.162,149.326 243.256,160.03 246.429,169.025L247.089,170.899L246.083,172.055C237.035,182.457 231.156,192.097 227.507,202.518L226.498,205.4L226.087,203.124C224.113,192.197 219.195,180.993 211.32,169.484L209.266,166.483L209.868,165.12C212.136,159.988 215.676,153.793 219.394,148.452C221.881,144.88 227.533,137.697 227.857,137.697C227.966,137.697 228.941,138.828 230.023,140.209M81.963,145.326C96.172,146.695 107.359,149.637 117.091,154.562C122.352,157.225 124.363,158.614 124.367,159.59C124.385,163.213 125.266,172.181 126.084,177.06C126.35,178.643 126.535,179.97 126.496,180.01C126.456,180.049 125.333,179.259 124,178.254C109.203,167.104 89.443,158.599 69.48,154.788C65.81,154.088 64.863,154.082 67.815,154.778C88.107,159.562 110.843,171.345 125.47,184.66L128.153,187.101L128.705,189.126C130.678,196.356 134.19,205.057 137.19,210.144C138.182,211.827 138.201,211.792 136.182,211.981C117.499,213.738 95.931,222.902 77.397,236.959C72.894,240.375 71.429,241.717 74.424,239.683C93.757,226.554 116.811,217.6 135.394,216.003C136.994,215.866 138.805,215.707 139.418,215.65L140.533,215.547L141.583,217.036C142.161,217.855 143.494,219.549 144.546,220.8C145.599,222.052 146.424,223.098 146.381,223.124C141.178,226.331 131.241,237.797 125.746,246.936C124.857,248.414 124.85,248.418 122.367,249.393C104.37,256.46 80.828,257.609 54.727,252.695C52.894,252.35 51.394,251.992 51.394,251.899C51.394,251.547 55.346,245.166 56.99,242.863C69.225,225.727 88.225,209.754 104.214,203.163L106.005,202.425L107.586,202.913C111.66,204.172 119.065,204.966 124.083,204.684C127.248,204.506 127.171,204.319 123.758,203.896C99.989,200.954 76.66,186.201 59.588,163.317C54.401,156.363 48.932,147.139 49.712,146.657C50.358,146.258 58.313,145.21 63.273,144.871C66.078,144.679 78.35,144.977 81.963,145.326M338.424,144.972C342.798,145.214 344.795,145.426 348.97,146.092C352.369,146.635 352.255,146.416 350.692,149.395C342.055,165.865 326.141,182.864 310.57,192.254C300.614,198.258 283.409,204.121 275.749,204.121C273.768,204.121 274.935,204.547 277.281,204.681C282.326,204.969 289.37,204.209 293.844,202.895L295.446,202.424L297.954,203.522C317.092,211.891 340.65,233.606 349.533,251.065L350.044,252.07L346.719,252.7C322.001,257.385 299.454,256.556 281.49,250.304C276.614,248.606 276.648,248.63 274.912,245.79C270.185,238.058 263.689,230.4 257.394,225.137C254.613,222.813 254.744,223.248 256.283,221.455C256.969,220.655 258.292,218.989 259.223,217.753C260.818,215.635 260.958,215.512 261.669,215.622C262.085,215.686 263.406,215.804 264.606,215.885C283.091,217.12 306.54,225.993 326.182,239.185C329.968,241.728 329.294,241.007 324.356,237.232C306.582,223.643 285.929,214.556 267.726,212.316L263.331,211.775L265.227,208.13C268.237,202.345 270.234,197.369 272.13,190.925L273.204,187.273L275.572,185.016C288.755,172.45 311.172,160.572 331.758,155.247C335.581,154.258 334.363,154.261 329.623,155.252C310.013,159.354 291.972,167.318 277.273,178.363C275.852,179.431 274.909,179.998 274.909,179.785C274.909,179.591 275.123,178.141 275.383,176.564C276.142,171.98 276.607,167.457 276.772,163.074L276.925,158.996L277.731,158.382C289.569,149.352 315.215,143.686 338.424,144.972M128.713,146.667C130.129,151.653 134.435,157.201 142.401,164.305C161.444,181.285 169.438,194.442 173.203,214.998C175.753,228.917 177.947,233.946 183.515,238.637L184.606,239.556L183.394,239.389C147.801,234.483 124.631,196.481 127.844,148.28C128.059,145.057 128.188,144.817 128.713,146.667M273.553,156.121C273.576,165.89 273.493,167.286 272.473,174.303C267.633,207.595 250.458,230.804 225.455,237.84C223.337,238.436 217.994,239.515 217.161,239.515C217.033,239.515 217.809,238.688 218.884,237.676C222.178,234.578 224.469,230.506 226.035,224.97C226.886,221.959 227.066,221.104 228.713,212.215C231.912,194.961 240.666,180.813 257.576,165.574C267.406,156.715 271.409,151.658 272.757,146.398C273.356,144.061 273.53,146.185 273.553,156.121M202.64,163.361C221.711,186.91 228.392,212.131 219.988,228.848C211.506,245.722 187.74,244.659 180.56,227.085C173.816,210.578 179.569,188.56 196.443,166.303C198.279,163.882 200.55,161.013 200.655,160.983C200.682,160.976 201.575,162.046 202.64,163.361M77.696,187.114C84.111,192.426 91.799,197.117 98.596,199.866L101.072,200.867L97.99,202.392C89.776,206.458 83.01,210.926 76.495,216.588L75.122,217.781L73.864,217.467C65.388,215.353 51.491,208.909 44.182,203.703C42.317,202.375 42.279,202.596 44.676,200.815C52.912,194.698 61.254,190.236 71.636,186.395C75.561,184.943 74.993,184.875 77.696,187.114M330.202,186.575C340.125,190.193 355.62,198.779 358.508,202.258C359.61,203.586 342.102,212.746 331.993,216.131C326.331,218.026 326.335,218.026 324.784,216.564C320.032,212.082 312.639,207.124 304.393,202.887L300.302,200.785L301.242,200.477C306.884,198.629 316.096,193.204 322.788,187.789C326.524,184.765 325.638,184.911 330.202,186.575M150.834,227.405C155.193,231.253 159.582,234.194 165.016,236.909L168.456,238.628L166.107,239.986C152.081,248.098 139.049,261.739 131.251,276.473C129.727,279.353 129.658,279.78 131.084,277.506C140.011,263.267 154.874,249.648 169.248,242.536C173.496,240.433 172.97,240.504 176.337,241.579C181.433,243.206 189.836,244.823 195.333,245.235C196.567,245.327 197.576,245.474 197.576,245.56C197.576,246.884 191.718,255.156 187.203,260.207C170.745,278.621 138.086,295.971 112.288,300.006L111.242,300.169L111.372,299.357C111.444,298.911 111.731,296.964 112.01,295.03C115.859,268.354 129.207,241.926 145.939,227.854C148.994,225.285 148.484,225.331 150.834,227.405M254.431,227.041C271.108,240.301 284.447,265.772 289.101,293.246C289.705,296.813 290.093,300.121 289.907,300.121C289.23,300.121 282.351,298.753 280.151,298.181C248.352,289.908 216.807,268.771 205.001,247.827C203.568,245.283 203.504,245.431 206.121,245.235C211.595,244.825 218.801,243.447 224.671,241.69C228.607,240.512 227.85,240.458 231.423,242.167C245.601,248.949 259.487,261.443 269.663,276.571C270.682,278.086 271.515,279.254 271.515,279.167C271.515,278.886 268.709,273.859 267.093,271.243C259.424,258.836 248.479,247.962 236.157,240.506L233.037,238.619L236.521,236.864C241.773,234.218 248.425,229.627 251.261,226.689C252.467,225.441 252.41,225.434 254.431,227.041M199.266,265.333C199.42,270 199.643,275.236 199.762,276.97C200.14,282.464 200.559,287.037 200.674,286.922C201.081,286.515 201.868,273.908 202.18,262.788C202.328,257.521 202.506,252.528 202.577,251.692L202.706,250.171L204.039,252.298C209.47,260.965 219.352,270.942 229.197,277.697L230.61,278.667L230.446,281.785C229.629,297.35 219.321,315.2 204.141,327.338C200.309,330.402 200.946,330.258 198.752,328.561C182.584,316.057 171.636,297.761 171.001,282.182L170.857,278.667L174.338,276.09C184.258,268.744 192.484,260.209 197.419,252.142L198.667,250.102L198.826,253.475C198.914,255.331 199.111,260.667 199.266,265.333"/>
        </g>
    </g>
</svg>
